<svg xmlns="http://www.w3.org/2000/svg" width="64" height="64" viewBox="0 0 64 64">
  <defs>
    <linearGradient id="blue" x1="0" y1="0" x2="0" y2="1">
      <stop offset="0%" stop-color="#5c8cd4"/>
      <stop offset="100%" stop-color="#2a5ca8"/>
    </linearGradient>
    <linearGradient id="orange" x1="0" y1="0" x2="1" y2="0">
      <stop offset="0%" stop-color="#f8a030"/>
      <stop offset="100%" stop-color="#d07010"/>
    </linearGradient>
    <linearGradient id="side" x1="0" y1="0" x2="0" y2="1">
      <stop offset="0%" stop-color="#3a6aa8"/>
      <stop offset="100%" stop-color="#204080"/>
    </linearGradient>
  </defs>
  <!-- Main block front face -->
  <polygon points="6,42 6,10 38,6 38,38" fill="url(#blue)" stroke="#1a3a70" stroke-width="1.8"/>
  <!-- Chamfer cut face (triangle) -->
  <polygon points="6,42 38,38 38,6 22,26 6,26" fill="url(#orange)" stroke="#b05a08" stroke-width="1.8"/>
  <!-- Top chamfer line -->
  <line x1="6" y1="10" x2="38" y2="6" stroke="#1a3a70" stroke-width="2"/>
  <!-- Side face -->
  <polygon points="38,6 58,16 58,48 38,38" fill="url(#side)" stroke="#1a3a70" stroke-width="1.8"/>
  <!-- Top face -->
  <polygon points="6,10 38,6 58,16 26,20" fill="#8ab4f8" stroke="#1a3a70" stroke-width="1.8"/>
  <!-- Chamfer indicator arrow -->
  <line x1="20" y1="30" x2="32" y2="22" stroke="#d07010" stroke-width="2.5" stroke-linecap="round"/>
  <polygon points="32,22 28,20 30,24" fill="#d07010"/>
</svg>
