<svg xmlns="http://www.w3.org/2000/svg" width="64" height="64" viewBox="0 0 64 64">
  <defs>
    <linearGradient id="body" x1="0" y1="0" x2="1" y2="0">
      <stop offset="0%" stop-color="#808080"/>
      <stop offset="30%" stop-color="#c0c0c0"/>
      <stop offset="70%" stop-color="#e0e0e0"/>
      <stop offset="100%" stop-color="#909090"/>
    </linearGradient>
    <linearGradient id="head" x1="0" y1="0" x2="1" y2="0">
      <stop offset="0%" stop-color="#909090"/>
      <stop offset="100%" stop-color="#b0b0b0"/>
    </linearGradient>
  </defs>
  <!-- Rod body -->
  <rect x="22" y="12" width="20" height="44" rx="1" fill="url(#body)" stroke="#555" stroke-width="1.8"/>
  <!-- Thread lines -->
  <line x1="22" y1="17" x2="42" y2="21" stroke="#444" stroke-width="2"/>
  <line x1="22" y1="24" x2="42" y2="28" stroke="#444" stroke-width="2"/>
  <line x1="22" y1="31" x2="42" y2="35" stroke="#444" stroke-width="2"/>
  <line x1="22" y1="38" x2="42" y2="42" stroke="#444" stroke-width="2"/>
  <line x1="22" y1="45" x2="42" y2="49" stroke="#444" stroke-width="2"/>
  <line x1="22" y1="52" x2="42" y2="53" stroke="#444" stroke-width="1.5"/>
  <!-- Head/flange -->
  <rect x="14" y="6" width="36" height="12" rx="2" fill="url(#head)" stroke="#555" stroke-width="1.8"/>
  <!-- Cross slot -->
  <line x1="22" y1="6" x2="42" y2="18" stroke="#666" stroke-width="2" stroke-linecap="round"/>
  <line x1="42" y1="6" x2="22" y2="18" stroke="#666" stroke-width="2" stroke-linecap="round"/>
  <!-- Thread indicator arrow -->
  <line x1="46" y1="20" x2="46" y2="40" stroke="#2a5ca8" stroke-width="2.5" stroke-linecap="round"/>
  <polygon points="46,40 44,35 48,35" fill="#2a5ca8"/>
</svg>
